<svg width="16" height="16" viewBox="0 0 16 16" fill="none" xmlns="http://www.w3.org/2000/svg">
<path d="M0.86265 8.48775L5.52932 13.1544C5.65505 13.2759 5.82345 13.343 5.99825 13.3415C6.17305 13.34 6.34026 13.2699 6.46386 13.1463C6.58747 13.0227 6.65758 12.8555 6.6591 12.6807C6.66062 12.5059 6.59342 12.3375 6.47198 12.2117L2.94332 8.68308L14.6673 8.68308C14.8441 8.68308 15.0137 8.61284 15.1387 8.48782C15.2637 8.36279 15.334 8.19322 15.334 8.01641C15.334 7.8396 15.2637 7.67003 15.1387 7.54501C15.0137 7.41998 14.8441 7.34974 14.6673 7.34974L2.94332 7.34975L6.47198 3.82108C6.53566 3.75958 6.58645 3.68602 6.62138 3.60468C6.65632 3.52335 6.67471 3.43587 6.67548 3.34735C6.67625 3.25883 6.65938 3.17104 6.62586 3.08911C6.59234 3.00718 6.54284 2.93274 6.48025 2.87015C6.41765 2.80755 6.34322 2.75805 6.26129 2.72453C6.17935 2.69101 6.09157 2.67414 6.00305 2.67491C5.91453 2.67568 5.82705 2.69407 5.74571 2.72901C5.66438 2.76395 5.59081 2.81474 5.52932 2.87841L0.86265 7.54508C0.737669 7.6701 0.667459 7.83964 0.667459 8.01641C0.667459 8.19319 0.737669 8.36273 0.86265 8.48775Z" fill="black" fill-opacity="0.9"/>
</svg>
