<svg width="16" height="16" viewBox="0 0 16 16" fill="none" xmlns="http://www.w3.org/2000/svg">
<path d="M15.1393 7.52873L10.4726 2.86207C10.3469 2.74063 10.1785 2.67343 10.0037 2.67495C9.8289 2.67647 9.6617 2.74658 9.53809 2.87019C9.41448 2.99379 9.34437 3.161 9.34285 3.3358C9.34133 3.5106 9.40853 3.679 9.52997 3.80473L13.0586 7.3334L1.33464 7.3334C1.15782 7.3334 0.988255 7.40364 0.863231 7.52866C0.738207 7.65369 0.667969 7.82326 0.667969 8.00007C0.667969 8.17688 0.738207 8.34645 0.863231 8.47147C0.988255 8.5965 1.15782 8.66673 1.33464 8.66673L13.0586 8.66673L9.52997 12.1954C9.4663 12.2569 9.41551 12.3305 9.38057 12.4118C9.34563 12.4931 9.32724 12.5806 9.32647 12.6691C9.3257 12.7577 9.34257 12.8454 9.37609 12.9274C9.40961 13.0093 9.45911 13.0837 9.52171 13.1463C9.5843 13.2089 9.65874 13.2584 9.74067 13.2919C9.8226 13.3255 9.91038 13.3423 9.9989 13.3416C10.0874 13.3408 10.1749 13.3224 10.2562 13.2875C10.3376 13.2525 10.4111 13.2017 10.4726 13.1381L15.1393 8.4714C15.2643 8.34638 15.3345 8.17684 15.3345 8.00007C15.3345 7.82329 15.2643 7.65375 15.1393 7.52873Z" fill="black" fill-opacity="0.9"/>
</svg>
